<svg version="1.1" xmlns="http://www.w3.org/2000/svg" xmlns:xlink="http://www.w3.org/1999/xlink" width="286.000000pt" height="270.000000pt" viewBox="0,0,256,241.67188"><g fill="#236cec" fill-rule="nonzero" stroke="none" stroke-width="1" stroke-linecap="butt" stroke-linejoin="miter" stroke-miterlimit="10" stroke-dasharray="" stroke-dashoffset="0" font-family="none" font-weight="none" font-size="none" text-anchor="none" style="mix-blend-mode: normal"><g transform="translate(-1.86841,-1.33215) scale(0.8951,0.8951)"><g transform="translate(0,270) scale(0.1,-0.1)"><path d="M965,2571c-85,-26 -133,-48 -190,-89c-61,-43 -149,-133 -171,-176c-93,-177 -102,-229 -82,-486l3,-35l-70,-3c-96,-5 -172,-39 -234,-108c-26,-29 -56,-69 -65,-89c-25,-51 -35,-138 -26,-213c21,-163 171,-292 342,-292h68v278v279l48,23c66,31 102,46 160,61c92,25 111,30 157,40c28,5 70,12 95,15c25,3 72,9 105,14c62,8 190,14 287,15c70,0 111,-30 106,-79c-6,-56 -35,-66 -223,-76c-94,-5 -197,-14 -230,-19c-33,-5 -84,-12 -113,-16c-29,-4 -55,-12 -58,-16c-3,-5 -20,-9 -38,-9c-17,0 -36,-4 -42,-9c-5,-4 -31,-14 -57,-21l-48,-13l4,-296c2,-163 7,-314 11,-336c20,-110 100,-307 139,-346c8,-8 20,-25 26,-38c27,-49 180,-209 261,-272c102,-79 266,-179 295,-179c29,0 198,103 295,179c74,59 168,152 213,211c23,30 44,57 47,60c11,11 50,69 50,75c0,3 11,22 23,43c13,20 34,66 46,102c12,36 26,74 31,85c9,22 19,85 29,180l6,60l160,2c88,2 169,7 180,12c11,5 40,17 64,27c64,27 145,108 178,179c24,53 28,72 28,160c0,87 -3,107 -26,155c-34,73 -115,155 -183,185c-70,31 -155,40 -231,25c-104,-21 -99,-23 -107,46c-12,111 -81,214 -175,260c-53,26 -222,27 -272,2c-32,-17 -35,-17 -47,0c-7,9 -14,23 -14,30c0,7 -15,46 -34,85c-33,71 -103,161 -161,209c-70,58 -187,116 -244,120c-17,1 -31,6 -31,10c0,16 -223,7 -285,-11zM1515,1297c75,-41 115,-106 115,-187c0,-53 -29,-125 -59,-146c-9,-7 -26,-20 -39,-30l-22,-19l30,-90c17,-49 37,-103 45,-120c24,-57 28,-77 14,-86c-16,-10 -319,-12 -343,-3c-20,8 -20,26 0,72c27,61 32,75 45,117c7,22 16,45 20,50c3,6 9,22 13,36c5,22 0,30 -28,49c-49,35 -76,81 -83,143c-10,97 35,178 122,218c47,21 127,19 170,-4z"></path></g></g></g></svg>