<?xml version="1.0" standalone="no"?>
<!DOCTYPE svg PUBLIC "-//W3C//DTD SVG 20010904//EN"
 "http://www.w3.org/TR/2001/REC-SVG-20010904/DTD/svg10.dtd">
<svg version="1.0" xmlns="http://www.w3.org/2000/svg"
 width="286.000000pt" height="270.000000pt" viewBox="0 0 286.000000 270.000000"
 preserveAspectRatio="xMidYMid meet">

<g transform="translate(0.000000,270.000000) scale(0.100000,-0.100000)"
fill="#000000" stroke="none">
<path d="M965 2571 c-85 -26 -133 -48 -190 -89 -61 -43 -149 -133 -171 -176
-93 -177 -102 -229 -82 -486 l3 -35 -70 -3 c-96 -5 -172 -39 -234 -108 -26
-29 -56 -69 -65 -89 -25 -51 -35 -138 -26 -213 21 -163 171 -292 342 -292 l68
0 0 278 0 279 48 23 c66 31 102 46 160 61 92 25 111 30 157 40 28 5 70 12 95
15 25 3 72 9 105 14 62 8 190 14 287 15 70 0 111 -30 106 -79 -6 -56 -35 -66
-223 -76 -94 -5 -197 -14 -230 -19 -33 -5 -84 -12 -113 -16 -29 -4 -55 -12
-58 -16 -3 -5 -20 -9 -38 -9 -17 0 -36 -4 -42 -9 -5 -4 -31 -14 -57 -21 l-48
-13 4 -296 c2 -163 7 -314 11 -336 20 -110 100 -307 139 -346 8 -8 20 -25 26
-38 27 -49 180 -209 261 -272 102 -79 266 -179 295 -179 29 0 198 103 295 179
74 59 168 152 213 211 23 30 44 57 47 60 11 11 50 69 50 75 0 3 11 22 23 43
13 20 34 66 46 102 12 36 26 74 31 85 9 22 19 85 29 180 l6 60 160 2 c88 2
169 7 180 12 11 5 40 17 64 27 64 27 145 108 178 179 24 53 28 72 28 160 0 87
-3 107 -26 155 -34 73 -115 155 -183 185 -70 31 -155 40 -231 25 -104 -21 -99
-23 -107 46 -12 111 -81 214 -175 260 -53 26 -222 27 -272 2 -32 -17 -35 -17
-47 0 -7 9 -14 23 -14 30 0 7 -15 46 -34 85 -33 71 -103 161 -161 209 -70 58
-187 116 -244 120 -17 1 -31 6 -31 10 0 16 -223 7 -285 -11z m550 -1274 c75
-41 115 -106 115 -187 0 -53 -29 -125 -59 -146 -9 -7 -26 -20 -39 -30 l-22
-19 30 -90 c17 -49 37 -103 45 -120 24 -57 28 -77 14 -86 -16 -10 -319 -12
-343 -3 -20 8 -20 26 0 72 27 61 32 75 45 117 7 22 16 45 20 50 3 6 9 22 13
36 5 22 0 30 -28 49 -49 35 -76 81 -83 143 -10 97 35 178 122 218 47 21 127
19 170 -4z"/>
</g>
</svg>
